<?xml version="1.0" encoding="UTF-8" standalone="no"?>
<!-- Created with Inkscape (http://www.inkscape.org/) -->

<svg
   xmlns:dc="http://purl.org/dc/elements/1.1/"
   xmlns:cc="http://creativecommons.org/ns#"
   xmlns:rdf="http://www.w3.org/1999/02/22-rdf-syntax-ns#"
   xmlns:svg="http://www.w3.org/2000/svg"
   xmlns="http://www.w3.org/2000/svg"
   xmlns:sodipodi="http://sodipodi.sourceforge.net/DTD/sodipodi-0.dtd"
   xmlns:inkscape="http://www.inkscape.org/namespaces/inkscape"
   width="945.64941"
   height="1092.11"
   id="svg2"
   version="1.1"
   inkscape:version="0.48.3.1 r9886"
   sodipodi:docname="ug2.svg">
  <defs
     id="defs4" />
  <sodipodi:namedview
     id="base"
     pagecolor="#ffffff"
     bordercolor="#666666"
     borderopacity="1.0"
     inkscape:pageopacity="0.0"
     inkscape:pageshadow="2"
     inkscape:zoom="0.35"
     inkscape:cx="315.81482"
     inkscape:cy="513.13196"
     inkscape:document-units="px"
     inkscape:current-layer="layer1"
     showgrid="false"
     fit-margin-top="0"
     fit-margin-left="0"
     fit-margin-right="0"
     fit-margin-bottom="0"
     inkscape:window-width="1920"
     inkscape:window-height="1056"
     inkscape:window-x="0"
     inkscape:window-y="24"
     inkscape:window-maximized="1" />
  <metadata
     id="metadata7">
    <rdf:RDF>
      <cc:Work
         rdf:about="">
        <dc:format>image/svg+xml</dc:format>
        <dc:type
           rdf:resource="http://purl.org/dc/dcmitype/StillImage" />
        <dc:title></dc:title>
      </cc:Work>
    </rdf:RDF>
  </metadata>
  <g
     inkscape:label="Layer 1"
     inkscape:groupmode="layer"
     id="layer1"
     transform="translate(-40.382735,59.195355)">
    <path
       inkscape:connector-curvature="0"
       id="path4053"
       d="m 470.62174,1032.0278 c -20.5195,-0.7779 -30.6726,-1.6557 -57,-4.928 -9.35,-1.1621 -20.6,-2.5146 -25,-3.0055 -4.4,-0.4909 -13.1169,-1.8124 -19.3709,-2.9367 -6.254,-1.1244 -13.0317,-2.0443 -15.0615,-2.0443 -3.8478,0 -32.9777,-7.8943 -39.0676,-10.5874 -3.4105,-1.5083 -4.6165,-2.01 -10.1971,-4.2426 -4.7379,-1.8953 -6.0655,-5.1841 -5.6141,-13.907 0.272,-5.2554 1.0702,-9.0551 2.4712,-11.76301 5.3174,-10.278 9.1714,-16.9133 11.515,-19.8246 6.5589,-8.1476 41.611,-23.6138 60.325,-26.6174 3.3,-0.5297 9.375,-1.7006 13.5,-2.602 4.125,-0.9014 12.9,-2.4845 19.5,-3.5179 15.2507,-2.388 25.566,-5.1368 29.3277,-7.8154 7.7671,-5.5307 21.5641,-24.8668 28.1784,-39.4914 9.5232,-21.0563 15.7751,-64.3346 16.4149,-113.63132 0.2788,-21.48304 -0.7939,-52.27388 -2.3063,-66.19781 -1.6367,-15.06835 -8.5641,-39.56461 -16.7031,-59.06408 -5.7513,-13.77914 -15.9747,-24.11469 -30.8313,-31.1695 -24.8735,-11.81145 -33.7112,-16.56806 -44.1386,-23.75621 -21.2586,-14.65458 -24.7688,-17.60013 -40.6412,-34.10402 -14.2,-14.76495 -19.5948,-20.85206 -26.8005,-30.2398 -1.375,-1.79137 -4.1811,-5.25567 -6.2358,-7.69844 -4.431,-5.26802 -8.3548,-12.23181 -22.69,-40.27014 -5.9052,-11.55 -11.2538,-21.9 -11.8858,-23 -1.8534,-3.22631 -7.9459,-19.67409 -10.2401,-27.6451 -5.36,-18.62317 -8.8787,-33.82833 -12.4629,-53.8549 -3.7064,-20.7093 -4.5168,-26.87451 -6.5067,-49.5 -1.9517,-22.19014 -2.0837,-29.24107 -1.7505,-93.5 0.2934,-56.57863 0.699,-73.40431 2.1814,-90.5 1.0016,-11.55001 2.1842,-21.9 2.6281,-23 0.4438,-1.10001 1.0337,-5.15 1.3109,-9 0.7186,-9.98314 5.5501,-23.728461 9.787,-27.843261 6.4211,-6.2361 36.0225,-21.46346 47.8644,-24.62209 5.7166,-1.52481 14.5357,-4.74789 19,-6.94385 0.825,-0.4058 5.55,-1.98262 10.5,-3.504029 4.95,-1.52141 9.7599,-3.1624 10.6887,-3.64666 1.4684,-0.7656 6.6764,-2.28047 20.8113,-6.05342 4.2422,-1.13235 16.6523,-3.68019 23.5,-4.82463 2.75,-0.4596 6.8,-1.30845 9,-1.88633 2.2,-0.57786 9.625,-1.52681 16.5,-2.10877 31.2047,-2.64144 35.8007,-3.13065 40.5,-4.31104 7.1093,-1.78575 95.8907,-1.78575 103,0 4.6993,1.18039 9.2953,1.66961 40.5,4.31104 6.875,0.58196 14.3,1.53091 16.5,2.10877 2.2,0.57787 6.25,1.42672 9,1.88633 6.8477,1.14445 19.2578,3.69229 23.5,4.82463 14.1349,3.77296 19.3429,5.28782 20.8113,6.05342 0.9288,0.48426 5.7387,2.12525 10.6887,3.64666 4.95,1.521409 9.675,3.098229 10.5,3.504029 4.4643,2.19596 13.2834,5.41904 19,6.94385 11.84176,3.15862 41.44316,18.38599 47.86426,24.62209 4.2369,4.1148 9.0685,17.860131 9.7871,27.843261 0.2772,3.85 0.8671,7.89999 1.3109,9 0.4439,1.1 1.6265,11.44999 2.628,23 1.4825,17.0957 1.8881,33.92137 2.1815,90.5 0.3332,64.25893 0.2012,71.30986 -1.7505,93.5 -1.9899,22.62549 -2.8004,28.7907 -6.5067,49.5 -3.5842,20.02657 -7.1029,35.23173 -12.4629,53.8549 -2.2942,7.97101 -8.3867,24.4188 -10.2402,27.6451 -0.6319,1.1 -5.9805,11.45 -11.8857,23 -14.3353,28.03833 -18.25896,35.00212 -22.68996,40.27015 -2.0547,2.44277 -4.8608,5.90707 -6.2358,7.69844 -7.2058,9.38774 -12.6005,15.47484 -26.8005,30.23979 -15.8725,16.5039 -19.3826,19.44944 -40.6412,34.10402 -10.4274,7.18816 -19.2651,11.94476 -44.1386,23.75621 -10.5309,5.00069 -17.1315,10.11077 -22.7453,17.60898 -5.9385,7.93173 -8.5175,13.46101 -14.7211,31.56052 -8.5899,25.06172 -10.5685,36.69236 -11.8679,69.76189 -2.5239,64.23822 3.8059,124.37182 15.9085,151.13132 6.6143,14.6246 20.4113,33.9607 28.1784,39.4914 3.7617,2.6786 14.077,5.4274 29.3277,7.8154 6.6,1.0334 15.375,2.6165 19.5,3.5179 4.125,0.9014 10.2,2.0723 13.5,2.602 12.6902,2.0368 37.4595,11.4728 50.8843,19.3847 7.671,4.5209 10.4023,7.4806 15.4416,16.7327 7.33206,13.46201 7.57336,14.12951 7.98526,22.08761 0.4512,8.7188 -0.8708,11.9973 -5.6141,13.9231 -7.84936,3.1867 -9.87126,4.0302 -11.69706,4.8796 -4.508,2.0971 -34.145,9.9343 -37.5676,9.9343 -2.0298,0 -8.8075,0.9199 -15.0615,2.0443 -6.254,1.1243 -14.9709,2.4458 -19.3709,2.9367 -4.4,0.4909 -15.65,1.8452 -25,3.0095 -44.0377,5.4839 -87.4847,6.9905 -142,4.924 z m 73,-896.92285 c 43.4945,-3.13743 65.1901,-5.13432 81.5,-7.50135 5.225,-0.7583 14,-1.86496 19.5,-2.45923 36.4079,-3.93388 60.2939,-7.48095 73,-10.84052 37.65396,-9.95593 39.43346,-10.51141 42.94426,-13.40526 2.1589,-1.77956 3.5557,-3.81784 3.5557,-5.18866 0,-2.25327 -0.012,-2.25495 -6.25,-0.84723 -3.4375,0.77577 -8.725,1.80602 -11.75,2.28944 -8.9417,1.42896 -28.78966,5.75238 -38.99996,8.49522 -5.225,1.40362 -13.775,3.18599 -19,3.96082 -24.4292,3.62266 -37.3248,5.38765 -47,6.43277 -5.775,0.62382 -14.325,1.77652 -19,2.56156 -51.8417,8.70536 -166.1583,8.70536 -218,0 -4.675,-0.78504 -13.225,-1.93774 -19,-2.56156 -9.6752,-1.04512 -22.5708,-2.81011 -47,-6.43277 -5.225,-0.77483 -13.775,-2.5572 -19,-3.96082 -10.2103,-2.74284 -30.0583,-7.06626 -39,-8.49522 -3.025,-0.48342 -8.3125,-1.51367 -11.75,-2.28944 -6.2377,-1.40772 -6.25,-1.40604 -6.25,0.84723 0,1.37082 1.3968,3.4091 3.5557,5.18866 3.5108,2.89385 5.2903,3.44933 42.9443,13.40526 12.7061,3.35957 36.5921,6.90664 73,10.84052 5.5,0.59427 14.275,1.70093 19.5,2.45923 15.8311,2.29755 40.2909,4.57474 80,7.44793 15.3032,1.10727 47.5087,1.1348 62.5,0.0534 z"
       style="fill:#d45500;fill-opacity:1" />
    <path
       inkscape:connector-curvature="0"
       id="path4055"
       d="m 528.39735,992.4396 c -8.85637,-0.9081 -21.9457,-3.169 -32.933,-7.3434 -13.3886,-5.0866 -15.2414,-6.04937 -17.0997,-8.88557 -2.9787,-4.5461 -0.7483,-4.978 10.7891,-2.0891 5.7131,1.4305 12.1702,2.5975 14.349,2.5933 9.456,-0.018 29.1907,-4.8566 37.9172,-9.2966 16.0229,-8.1524 44.3584,-31.9224 51.4279,-43.1416 4.2045,-6.6724 4.2549,-12.3676 0.1665,-18.8143 -4.1791,-6.5897 -11.03227,-9.39776 -24.27287,-12.97206 -16.40844,-29.08077 -15.55522,-42.30357 -18.53116,-60.15044 18.27372,5.68346 47.45722,9.63984 61.20342,16.60554 15.001,7.6016 30.06681,20.61286 35.97741,34.03996 4.862,11.045 5.9931,16.6285 6.0341,29.7856 0.039,12.4855 0.021,12.586 -3.6513,20 -2.6483,5.3475 -6.0367,9.8685 -12,16.0114 -24.6346,25.3764 -28.656,22.98094 -48.04594,34.47347 -4.40251,2.6094 -26.86533,6.8311 -28.91013,7.6902 -4.6429,1.9507 -20.63027,2.7026 -32.42053,1.4936 z m -66.9552,-128.93097 c -3.2878,-3.4613 -9.12783,-9.0354 -12.97783,-12.3868 -13.69582,-11.9223 -31.892,-31.2885 -43.09775,-45.86883 -4.80808,-6.256 -10.0888,-18.2273 -11.9236,-27.0306 -2.21394,-10.6224 -3.17015,-40.2201 -1.57284,-48.6845 1.08023,-5.7242 8.81242,-27.15225 11.11962,-30.81548 0.5196,-0.825 1.62645,-2.9625 2.45965,-4.75 4.97197,-10.66652 6.64921,-13.56402 13.81001,-23.8573 2.63729,-3.79099 6.40122,-8.2427 8.36428,-9.8927 1.96306,-1.65 6.10527,-5.53922 9.20491,-8.6427 3.09965,-3.10349 6.98572,-6.47408 8.63572,-7.4902 1.65,-1.01612 4.82255,-3.20191 7.0501,-4.8573 9.03608,-6.71509 25.04493,-12.5477 39.94993,-14.55524 17.85593,-3.32424 32.91674,-4.54186 53.08085,-8.04024 16.97803,-4.96691 34.33677,-8.25064 49.12955,-16.98548 9.03102,-4.26271 17.06858,-6.30984 35.88051,-15.255 19.33357,-8.52014 35.14669,-19.63359 61.70842,-46.93905 1.249,0.47931 -2.16363,-0.51835 -2.51873,17.52195 -0.4099,20.82853 -0.4826,21.43849 -3.7249,31.24326 -8.8407,26.73499 -18.6407,41.06978 -41.5557,60.78559 -17.753,15.27442 -45.1969,28.72943 -64.9518,31.84414 -15.895,2.50612 -68.76454,14.1318 -76.7408,16.94218 -7.83099,2.75919 -19.5175,12.90032 -24.0563,17.92937 -7.1048,7.8723 -10.95691,14.5328 -15.72896,27.1963 -3.6666,9.73 -4.02217,11.5147 -4.02217,20.1888 0,19.2748 7.07957,29.29829 20.65992,42.73039 -3.0348,30.49552 -4.71615,36.79232 -11.07814,65.67294 -1.18012,0.1858 -3.27078,-1.9681 -7.10395,-6.0035 z M 325.46432,524.37301 c -3.3,-1.18282 -6.45,-2.4084 -7,-2.7235 -0.55,-0.3151 -3.025,-1.14585 -5.5,-1.84611 -2.475,-0.70026 -5.91718,-1.87606 -7.64928,-2.61288 -11.44178,-5.47037 -16.41812,-7.55776 -23.8086,-10.4681 -0.63136,0 -4.94911,-1.85282 -9.59502,-4.11738 -4.6459,-2.26456 -13.72921,-6.50248 -20.18513,-9.41761 -10.72972,-4.84493 -34.88083,-17.79582 -45.32914,-24.30747 -2.3453,-1.46165 -10.71058,-8.28254 -18.58951,-15.15754 -33.05481,-28.84296 -44.53068,-41.79606 -54.44053,-61.44835 -12.94345,-25.66824 -16.42128,-39.89265 -16.39395,-67.05165 0.0181,-17.95884 0.0281,-18.03894 4.38445,-35.02703 4.5746,-17.83911 10.60733,-31.79314 19.28767,-44.61344 8.35921,-12.34599 19.60476,-25.30755 28.5942,-32.9575 3.97366,-3.38156 10.16707,-9.13038 13.76313,-12.77516 3.59607,-3.64478 8.09607,-7.99067 10,-9.65754 1.90394,-1.66687 4.63948,-4.59187 6.07898,-6.5 1.4395,-1.90813 6.08834,-6.84433 10.33076,-10.96933 4.24241,-4.125 10.14055,-10.71355 13.10696,-14.64122 2.96641,-3.92767 7.56367,-9.55267 10.21613,-12.5 8.66015,-9.62288 9.22888,-10.64127 9.22888,-16.52576 0,-6.50325 -1.83312,-11.26999 -5.41865,-14.09037 l -2.66102,-2.09316 -7.11573,1.97187 c -19.86573,5.50508 -41.27229,15.25632 -55.72739,25.38528 -7.86739,5.51283 -28.7799,15.60364 -40.09005,19.34446 -20.37381,6.73862 -35.99386,6.78657 -36.7807,0.1129 -0.60814,-5.158 11.93351,-20.34998 22.0871,-26.7546 3.41354,-2.15317 13.18144,-7.3196 21.70644,-11.48096 8.525,-4.16135 20.45,-10.45916 26.5,-13.99513 6.05,-3.53596 15.725,-9.03209 21.5,-12.21363 25.25993,-13.91605 44.85631,-29.55862 46.99913,-37.51646 3.08396,-11.45294 -6.0912,-18.31768 -34.1528,-25.55269 -14.93981,-3.85187 -19.6861,-4.62614 -34.21148,-5.58097 -12.56442,-0.82592 -19.95962,-0.8144 -29,0.0452 -6.67417,0.63459 -17.53485,1.3979 -24.13485,1.69624 -20.47724,0.92563 -28.70245,3.99995 -29.8467,11.15574 -1.27733,7.98798 1.89874,26.16351 8.04183,46.0205 1.41008,4.55796 2.27584,8.57516 1.9239,8.9271 -1.66944,1.6694 -11.35186,-10.86917 -18.31245,-23.71434 -1.6392,-3.025 -4.38338,-7.75 -6.09819,-10.5 -1.71481,-2.75 -4.31001,-8.6 -5.76711,-13 C 57.42079,35.18951 57.58443,35.3825 51.99457,36.12402 46.14997,36.89933 44.28,36.25058 42.56098,32.85124 40.39726,28.57249 39.87035,23.44338 40.86964,16.38713 42.67499,3.63909 48.40708,-3.5024 66.46432,-15.50071 c 12.60907,-8.37823 17.81187,-10.88643 50.5,-24.34539 10.44738,-4.30159 50.5644,-14.77581 68.71611,-17.94121 10.8978,-1.90041 23.85076,-1.87516 32.78389,0.0639 3.85,0.8357 9.025,1.92462 11.5,2.41981 4.27371,0.85507 8.85402,2.74696 25.94581,10.71684 11.65585,5.43511 24.14232,15.39233 32.99201,26.30916 3.34391,4.125 6.63454,8.15984 7.3125,8.96631 2.83574,3.37325 5.61362,8.2158 11.4921,20.03369 6.72171,13.51309 8.66291,19.07719 10.7706,30.87196 0.74971,4.19542 1.85142,9.65304 2.44825,12.12804 0.59683,2.475 1.30134,7.2 1.56559,10.5 0.26425,3.3 0.89603,8.925 1.40396,12.5 1.04574,7.36029 0.70232,30.16655 -0.48314,32.08465 -0.91437,1.47949 -1.94239,6.20715 -3.89564,17.91535 -1.8015,10.79861 -2.94952,15.73285 -4.53692,19.5 -2.16413,5.1358 -2.81792,6.76444 -6.02152,15 -1.71158,4.4 -3.73303,9.35 -4.49209,11 -0.75907,1.65 -2.32322,5.25 -3.47589,8 -1.15267,2.75 -2.52999,5.78139 -3.06069,6.73643 -0.53071,0.95504 -0.96493,2.32806 -0.96493,3.05117 0,2.77898 -8.52403,14.23178 -17.86897,24.00856 -5.36423,5.61211 -11.80568,12.90384 -14.31432,16.20384 -2.50865,3.3 -13.57877,14.50643 -24.60027,24.90318 -11.0215,10.39674 -21.76045,21.19674 -23.86432,24 -2.10387,2.80325 -4.07104,5.32182 -4.37149,5.59682 -1.0737,0.98277 -6.85625,10.61443 -10.25277,17.07745 -4.64217,8.83328 -6.7325,20.63275 -6.72989,37.98889 0.001,7.46149 0.49322,16.23649 1.09356,19.5 1.35915,7.3885 6.50012,18.62281 10.99905,24.03571 1.87518,2.25613 4.75942,5.81716 6.40942,7.91339 1.65,2.09624 3.45,4.34353 4,4.99399 3.63406,4.29782 23.28637,20.95821 29.5,25.00883 8.6396,7.4404 24.16045,11.24809 25.36875,14.17559 6.14128,14.87921 13.29697,28.02584 21.40923,43.81755 12.73653,24.79354 31.16304,44.76392 28.15059,43.71062 z"
       style="fill:#000000"
       sodipodi:nodetypes="sssscsssccssscsssssssssssssssscccccssssssssccscssccssssssssssssssssscssssssssssssssssssssssssssssssssssssssssssssssssscsssscsscc" />
    <path
       sodipodi:nodetypes="sssscsssccssscsssssssssssssssscccccssssssssccscssccssssssssssssssssscssssssssssssssssssssssssssssssssssssssssssssssssscsssscsscc"
       style="fill:#000000"
       d="m 498.01755,992.4396 c 8.85637,-0.9081 21.9457,-3.169 32.933,-7.3434 13.3886,-5.0866 15.2414,-6.04937 17.0997,-8.88557 2.9787,-4.5461 0.7483,-4.978 -10.7891,-2.0891 -5.7131,1.4305 -12.1702,2.5975 -14.349,2.5933 -9.456,-0.018 -29.1907,-4.8566 -37.9172,-9.2966 -16.0229,-8.1524 -44.3584,-31.9224 -51.4279,-43.1416 -4.2045,-6.6724 -4.2549,-12.3676 -0.1665,-18.8143 4.1791,-6.5897 11.03227,-9.39776 24.27287,-12.97206 16.40844,-29.08077 15.55522,-42.30357 18.53116,-60.15044 -18.27372,5.68346 -47.45722,9.63984 -61.20342,16.60554 -15.001,7.6016 -30.06681,20.61286 -35.97741,34.03996 -4.862,11.045 -5.9931,16.6285 -6.0341,29.7856 -0.039,12.4855 -0.021,12.586 3.6513,20 2.6483,5.3475 6.0367,9.8685 12,16.0114 24.6346,25.3764 28.656,22.98094 48.04594,34.47347 4.40251,2.6094 26.86533,6.8311 28.91013,7.6902 4.6429,1.9507 20.63027,2.7026 32.42053,1.4936 z m 66.9552,-128.93097 c 3.2878,-3.4613 9.12783,-9.0354 12.97783,-12.3868 13.69582,-11.9223 31.892,-31.2885 43.09775,-45.86883 4.80808,-6.256 10.0888,-18.2273 11.9236,-27.0306 2.21394,-10.6224 3.17015,-40.2201 1.57284,-48.6845 -1.08023,-5.7242 -8.81242,-27.15225 -11.11962,-30.81548 -0.5196,-0.825 -1.62645,-2.9625 -2.45965,-4.75 -4.97197,-10.66652 -6.64921,-13.56402 -13.81001,-23.8573 -2.63729,-3.79099 -6.40122,-8.2427 -8.36428,-9.8927 -1.96306,-1.65 -6.10527,-5.53922 -9.20491,-8.6427 -3.09965,-3.10349 -6.98572,-6.47408 -8.63572,-7.4902 -1.65,-1.01612 -4.82255,-3.20191 -7.0501,-4.8573 -9.03608,-6.71509 -25.04493,-12.5477 -39.94993,-14.55524 -17.85593,-3.32424 -32.91674,-4.54186 -53.08085,-8.04024 -16.97803,-4.96691 -34.33677,-8.25064 -49.12955,-16.98548 -9.03102,-4.26271 -17.06858,-6.30984 -35.88051,-15.255 -19.33357,-8.52014 -35.14669,-19.63359 -61.70842,-46.93905 -1.249,0.47931 2.16363,-0.51835 2.51873,17.52195 0.4099,20.82853 0.4826,21.43849 3.7249,31.24326 8.8407,26.73499 18.6407,41.06978 41.5557,60.78559 17.753,15.27442 45.1969,28.72943 64.9518,31.84414 15.895,2.50612 68.76454,14.1318 76.7408,16.94218 7.83099,2.75919 19.5175,12.90032 24.0563,17.92937 7.1048,7.8723 10.95691,14.5328 15.72896,27.1963 3.6666,9.73 4.02217,11.5147 4.02217,20.1888 0,19.2748 -7.07957,29.29829 -20.65992,42.73039 3.0348,30.49552 4.71615,36.79232 11.07814,65.67294 1.18012,0.1858 3.27078,-1.9681 7.10395,-6.0035 z M 700.95058,524.37301 c 3.3,-1.18282 6.45,-2.4084 7,-2.7235 0.55,-0.3151 3.025,-1.14585 5.5,-1.84611 2.475,-0.70026 5.91718,-1.87606 7.64928,-2.61288 11.44178,-5.47037 16.41812,-7.55776 23.8086,-10.4681 0.63136,0 4.94911,-1.85282 9.59502,-4.11738 4.6459,-2.26456 13.72921,-6.50248 20.18513,-9.41761 10.72972,-4.84493 34.88083,-17.79582 45.32914,-24.30747 2.3453,-1.46165 10.71058,-8.28254 18.58951,-15.15754 33.05481,-28.84296 44.53068,-41.79606 54.44053,-61.44835 12.94345,-25.66824 16.42128,-39.89265 16.39395,-67.05165 -0.0181,-17.95884 -0.0281,-18.03894 -4.38445,-35.02703 -4.5746,-17.83911 -10.60733,-31.79314 -19.28767,-44.61344 -8.35921,-12.34599 -19.60476,-25.30755 -28.5942,-32.9575 -3.97366,-3.38156 -10.16707,-9.13038 -13.76313,-12.77516 -3.59607,-3.64478 -8.09607,-7.99067 -10,-9.65754 -1.90394,-1.66687 -4.63948,-4.59187 -6.07898,-6.5 -1.4395,-1.90813 -6.08834,-6.84433 -10.33076,-10.96933 -4.24241,-4.125 -10.14055,-10.71355 -13.10696,-14.64122 -2.96641,-3.92767 -7.56367,-9.55267 -10.21613,-12.5 -8.66015,-9.62288 -9.22888,-10.64127 -9.22888,-16.52576 0,-6.50325 1.83312,-11.26999 5.41865,-14.09037 l 2.66102,-2.09316 7.11573,1.97187 c 19.86573,5.50508 41.27229,15.25632 55.72739,25.38528 7.86739,5.51283 28.7799,15.60364 40.09005,19.34446 20.37381,6.73862 35.99386,6.78657 36.7807,0.1129 0.60814,-5.158 -11.93351,-20.34998 -22.0871,-26.7546 -3.41354,-2.15317 -13.18144,-7.3196 -21.70644,-11.48096 -8.525,-4.16135 -20.45,-10.45916 -26.5,-13.99513 -6.05,-3.53596 -15.725,-9.03209 -21.5,-12.21363 -25.25993,-13.91605 -44.85631,-29.55862 -46.99913,-37.51646 -3.08396,-11.45294 6.0912,-18.31768 34.1528,-25.55269 14.93981,-3.85187 19.6861,-4.62614 34.21148,-5.58097 12.56442,-0.82592 19.95962,-0.8144 29,0.0452 6.67417,0.63459 17.53485,1.3979 24.13485,1.69624 20.47724,0.92563 28.70245,3.99995 29.8467,11.15574 1.27733,7.98798 -1.89874,26.16351 -8.04183,46.0205 -1.41008,4.55796 -2.27584,8.57516 -1.9239,8.9271 1.66944,1.6694 11.35186,-10.86917 18.31245,-23.71434 1.6392,-3.025 4.38338,-7.75 6.09819,-10.5 1.71481,-2.75 4.31001,-8.6 5.76711,-13 3.98481,-12.03291 3.82117,-11.83992 9.41103,-11.0984 5.8446,0.77531 7.71457,0.12656 9.43359,-3.27278 2.16372,-4.27875 2.69063,-9.40786 1.69134,-16.46411 -1.80535,-12.74804 -7.53744,-19.88953 -25.59468,-31.88784 -12.60907,-8.37823 -17.81187,-10.88643 -50.5,-24.34539 -10.44738,-4.30159 -50.5644,-14.77581 -68.71611,-17.94121 -10.8978,-1.90041 -23.85076,-1.87516 -32.78389,0.0639 -3.85,0.8357 -9.025,1.92462 -11.5,2.41981 -4.27371,0.85507 -8.85402,2.74696 -25.94581,10.71684 -11.65585,5.43511 -24.14232,15.39233 -32.99201,26.30916 -3.34391,4.125 -6.63454,8.15984 -7.3125,8.96631 -2.83574,3.37325 -5.61362,8.2158 -11.4921,20.03369 -6.72171,13.51309 -8.66291,19.07719 -10.7706,30.87196 -0.74971,4.19542 -1.85142,9.65304 -2.44825,12.12804 -0.59683,2.475 -1.30134,7.2 -1.56559,10.5 -0.26425,3.3 -0.89603,8.925 -1.40396,12.5 -1.04574,7.36029 -0.70232,30.16655 0.48314,32.08465 0.91437,1.47949 1.94239,6.20715 3.89564,17.91535 1.8015,10.79861 2.94952,15.73285 4.53692,19.5 2.16413,5.1358 2.81792,6.76444 6.02152,15 1.71158,4.4 3.73303,9.35 4.49209,11 0.75907,1.65 2.32322,5.25 3.47589,8 1.15267,2.75 2.52999,5.78139 3.06069,6.73643 0.53071,0.95504 0.96493,2.32806 0.96493,3.05117 0,2.77898 8.52403,14.23178 17.86897,24.00856 5.36423,5.61211 11.80568,12.90384 14.31432,16.20384 2.50865,3.3 13.57877,14.50643 24.60027,24.90318 11.0215,10.39674 21.76045,21.19674 23.86432,24 2.10387,2.80325 4.07104,5.32182 4.37149,5.59682 1.0737,0.98277 6.85625,10.61443 10.25277,17.07745 4.64217,8.83328 6.7325,20.63275 6.72989,37.98889 -0.001,7.46149 -0.49322,16.23649 -1.09356,19.5 -1.35915,7.3885 -6.50012,18.62281 -10.99905,24.03571 -1.87518,2.25613 -4.75942,5.81716 -6.40942,7.91339 -1.65,2.09624 -3.45,4.34353 -4,4.99399 -3.63406,4.29782 -23.28637,20.95821 -29.5,25.00883 -8.6396,7.4404 -24.16045,11.24809 -25.36875,14.17559 -6.14128,14.87921 -13.29697,28.02584 -21.40923,43.81755 -12.73653,24.79354 -31.16304,44.76392 -28.15059,43.71062 z"
       id="path4076"
       inkscape:connector-curvature="0" />
  </g>
</svg>
